<svg width="48" height="48" viewBox="0 0 48 48" fill="none" xmlns="http://www.w3.org/2000/svg">
<path d="M12.4506 9.62216C11.6695 8.84111 10.4032 8.84111 9.62216 9.62216C8.84111 10.4032 8.84111 11.6695 9.62216 12.4506L21.1716 24.0001L9.62228 35.5494C8.84123 36.3305 8.84123 37.5968 9.62228 38.3778C10.4033 39.1589 11.6697 39.1589 12.4507 38.3778L24.0001 26.8285L35.5494 38.3778C36.3305 39.1589 37.5968 39.1589 38.3778 38.3778C39.1589 37.5968 39.1589 36.3305 38.3778 35.5494L26.8285 24.0001L38.378 12.4506C39.159 11.6695 39.159 10.4032 38.378 9.62216C37.5969 8.84111 36.3306 8.84111 35.5495 9.62216L24.0001 21.1716L12.4506 9.62216Z" fill="white"/>
</svg>
